<svg id="placeholder" xmlns="http://www.w3.org/2000/svg" width="20.293" height="25.3" viewBox="0 0 20.293 25.3">
  <g id="Group_43" data-name="Group 43" transform="translate(0)">
    <path id="Path_235" data-name="Path 235" d="M57.341,0A10.155,10.155,0,0,0,47.2,10.141a9.982,9.982,0,0,0,.18,1.9c.005.037.027.149.069.339a9.988,9.988,0,0,0,.679,2c1.093,2.572,3.5,6.524,8.768,10.757a.718.718,0,0,0,.9,0c5.267-4.233,7.675-8.184,8.768-10.757a9.875,9.875,0,0,0,.679-2c.042-.191.064-.3.069-.339a10.429,10.429,0,0,0,.18-1.9A10.171,10.171,0,0,0,57.341,0Zm8.55,11.8c0,.011-.005.021-.005.032-.005.027-.021.106-.048.228v.011A8.421,8.421,0,0,1,65.25,13.8c-.005.005-.005.016-.011.021-.992,2.35-3.167,5.935-7.9,9.844-4.731-3.909-6.906-7.495-7.9-9.844-.005-.005-.005-.016-.011-.021a8.982,8.982,0,0,1-.589-1.729v-.011c-.032-.122-.042-.2-.048-.228,0-.011-.005-.021-.005-.037a8.709,8.709,0,1,1,17.1.005Z" transform="translate(-47.2)" fill="#02c873"/>
    <path id="Path_236" data-name="Path 236" d="M123.439,71.9a6.439,6.439,0,1,0,6.439,6.439A6.449,6.449,0,0,0,123.439,71.9Zm0,11.446a5.007,5.007,0,1,1,5.007-5.007A5.013,5.013,0,0,1,123.439,83.346Z" transform="translate(-113.298 -68.086)" fill="#02c873"/>
  </g>
</svg>
