<svg id="clock-circular-outline" xmlns="http://www.w3.org/2000/svg" width="19.316" height="19.316" viewBox="0 0 19.316 19.316">
  <g id="Group_74" data-name="Group 74">
    <path id="Path_465" data-name="Path 465" d="M9.658,0a9.658,9.658,0,1,0,9.658,9.658A9.669,9.669,0,0,0,9.658,0Zm0,17.261a7.6,7.6,0,1,1,7.6-7.6A7.612,7.612,0,0,1,9.658,17.261Z" fill="#02c873"/>
    <path id="Path_466" data-name="Path 466" d="M50,22.844h-4.34V17.625a.8.8,0,1,0-1.59,0v6.014a.8.8,0,0,0,.8.8H50a.8.8,0,1,0,0-1.59Z" transform="translate(-35.305 -13.484)" fill="#02c873"/>
  </g>
</svg>
