<svg id="envelope" xmlns="http://www.w3.org/2000/svg" width="23.21" height="17.663" viewBox="0 0 23.21 17.663">
  <g id="Group_41" data-name="Group 41" transform="translate(0 0)">
    <path id="Path_230" data-name="Path 230" d="M20.377,57.75H2.838A2.841,2.841,0,0,0,0,60.588V72.575a2.841,2.841,0,0,0,2.838,2.838H20.372a2.841,2.841,0,0,0,2.838-2.838V60.593A2.838,2.838,0,0,0,20.377,57.75Zm1.542,14.825a1.543,1.543,0,0,1-1.542,1.542H2.838A1.543,1.543,0,0,1,1.3,72.575V60.593a1.543,1.543,0,0,1,1.542-1.542H20.372a1.543,1.543,0,0,1,1.542,1.542V72.575Z" transform="translate(0 -57.75)" fill="#02c873"/>
    <path id="Path_231" data-name="Path 231" d="M67.713,115.129l5.676-5.091a.649.649,0,0,0-.869-.965L64.692,116.1l-1.527-1.364s-.01-.01-.01-.014a.959.959,0,0,0-.106-.091l-6.214-5.561a.65.65,0,1,0-.864.97l5.744,5.134-5.72,5.355a.651.651,0,0,0-.029.917.663.663,0,0,0,.475.206.65.65,0,0,0,.442-.173l5.806-5.432,1.575,1.407a.647.647,0,0,0,.864,0L66.747,116l5.772,5.484a.65.65,0,0,0,.917-.024.651.651,0,0,0-.024-.917Z" transform="translate(-53.075 -106.446)" fill="#02c873"/>
  </g>
</svg>
