<svg id="appointment" xmlns="http://www.w3.org/2000/svg" width="23.98" height="23.1" viewBox="0 0 23.98 23.1">
  <g id="Group_53" data-name="Group 53" transform="translate(0)">
    <g id="Group_52" data-name="Group 52">
      <path id="Path_454" data-name="Path 454" d="M21.638,1.985H19.406V1.354a1.406,1.406,0,0,0-2.81,0v.632H8.727V1.354a1.406,1.406,0,0,0-2.81,0V2a.484.484,0,0,0-.125-.017H3.926A2.3,2.3,0,0,0,1.584,4.241v7.685a.469.469,0,0,0,.937,0V6.632H19.406a.451.451,0,1,0,0-.9H2.521V4.241A1.382,1.382,0,0,1,3.926,2.888H5.792a.486.486,0,0,0,.125-.017v.581a1.406,1.406,0,0,0,2.81,0V2.888H16.6v.564a1.406,1.406,0,0,0,2.81,0V2.888h2.233a1.382,1.382,0,0,1,1.405,1.354V21.385a.844.844,0,0,1-1.687,0V20.218a.46.46,0,0,0-.468-.451H15.44a.451.451,0,1,0,0,.9h4.98v.716a1.655,1.655,0,0,0,.213.812H1.78a.829.829,0,0,1-.843-.812v-.716H11.42a.451.451,0,1,0,0-.9H6.74a3.637,3.637,0,0,0,1.338-2.8,3.776,3.776,0,0,0-3.841-3.7A3.776,3.776,0,0,0,.4,16.964a3.637,3.637,0,0,0,1.338,2.8H.468A.46.46,0,0,0,0,20.218v1.167A1.75,1.75,0,0,0,1.78,23.1H22.2a1.75,1.75,0,0,0,1.78-1.715V4.241A2.3,2.3,0,0,0,21.638,1.985ZM7.79,3.451a.469.469,0,0,1-.937,0v-2.1a.469.469,0,0,1,.937,0Zm10.679,0a.469.469,0,0,1-.937,0v-2.1a.469.469,0,0,1,.937,0ZM1.334,16.964a2.855,2.855,0,0,1,2.9-2.8,2.8,2.8,0,1,1,0,5.595A2.855,2.855,0,0,1,1.334,16.964Z" transform="translate(0)" fill="#02c873"/>
    </g>
  </g>
  <g id="Group_55" data-name="Group 55" transform="translate(21.369 5.741)">
    <g id="Group_54" data-name="Group 54">
      <path id="Path_455" data-name="Path 455" d="M451.973,127.126a.429.429,0,1,0,.126.3A.433.433,0,0,0,451.973,127.126Z" transform="translate(-451.24 -127)" fill="#02c873"/>
    </g>
  </g>
  <g id="Group_57" data-name="Group 57" transform="translate(13.232 19.926)">
    <g id="Group_56" data-name="Group 56">
      <path id="Path_456" data-name="Path 456" d="M282.313,438.255a.43.43,0,1,0,.126.3A.432.432,0,0,0,282.313,438.255Z" transform="translate(-281.58 -438.13)" fill="#02c873"/>
    </g>
  </g>
  <g id="Group_59" data-name="Group 59" transform="translate(8.944 13.829)">
    <g id="Group_58" data-name="Group 58">
      <path id="Path_457" data-name="Path 457" d="M189.878,304a1.633,1.633,0,1,0,1.633,1.633A1.635,1.635,0,0,0,189.878,304Zm0,2.406a.773.773,0,1,1,.773-.773A.774.774,0,0,1,189.878,306.406Z" transform="translate(-188.245 -304)" fill="#02c873"/>
    </g>
  </g>
  <g id="Group_61" data-name="Group 61" transform="translate(13.378 13.829)">
    <g id="Group_60" data-name="Group 60">
      <path id="Path_458" data-name="Path 458" d="M283.211,304a1.633,1.633,0,1,0,1.633,1.633A1.635,1.635,0,0,0,283.211,304Zm0,2.406a.773.773,0,1,1,.773-.773A.774.774,0,0,1,283.211,306.406Z" transform="translate(-281.578 -304)" fill="#02c873"/>
    </g>
  </g>
  <g id="Group_63" data-name="Group 63" transform="translate(18.09 13.829)">
    <g id="Group_62" data-name="Group 62">
      <path id="Path_459" data-name="Path 459" d="M376.545,304a1.633,1.633,0,1,0,1.633,1.633A1.635,1.635,0,0,0,376.545,304Zm0,2.406a.773.773,0,1,1,.773-.773A.774.774,0,0,1,376.545,306.406Z" transform="translate(-374.912 -304)" fill="#02c873"/>
    </g>
  </g>
  <g id="Group_65" data-name="Group 65" transform="translate(4.509 9.098)">
    <g id="Group_64" data-name="Group 64">
      <path id="Path_460" data-name="Path 460" d="M96.545,200a1.633,1.633,0,1,0,1.633,1.633A1.635,1.635,0,0,0,96.545,200Zm0,2.406a.773.773,0,1,1,.773-.773A.774.774,0,0,1,96.545,202.406Z" transform="translate(-94.912 -200)" fill="#02c873"/>
    </g>
  </g>
  <g id="Group_67" data-name="Group 67" transform="translate(13.378 9.098)">
    <g id="Group_66" data-name="Group 66">
      <path id="Path_461" data-name="Path 461" d="M283.211,200a1.633,1.633,0,1,0,1.633,1.633A1.635,1.635,0,0,0,283.211,200Zm0,2.406a.773.773,0,1,1,.773-.773A.774.774,0,0,1,283.211,202.406Z" transform="translate(-281.578 -200)" fill="#02c873"/>
    </g>
  </g>
  <g id="Group_69" data-name="Group 69" transform="translate(18.09 9.098)">
    <g id="Group_68" data-name="Group 68">
      <path id="Path_462" data-name="Path 462" d="M376.545,200a1.633,1.633,0,1,0,1.633,1.633A1.635,1.635,0,0,0,376.545,200Zm0,2.406a.773.773,0,1,1,.773-.773A.774.774,0,0,1,376.545,202.406Z" transform="translate(-374.912 -200)" fill="#02c873"/>
    </g>
  </g>
  <g id="Group_71" data-name="Group 71" transform="translate(8.944 9.098)">
    <g id="Group_70" data-name="Group 70">
      <path id="Path_463" data-name="Path 463" d="M189.878,200a1.633,1.633,0,1,0,1.633,1.633A1.635,1.635,0,0,0,189.878,200Zm0,2.406a.773.773,0,1,1,.773-.773A.774.774,0,0,1,189.878,202.406Z" transform="translate(-188.245 -200)" fill="#02c873"/>
    </g>
  </g>
  <g id="Group_73" data-name="Group 73" transform="translate(2.2 15.831)">
    <g id="Group_72" data-name="Group 72">
      <path id="Path_464" data-name="Path 464" d="M54.413,348.826a.43.43,0,0,0-.608,0l-1.4,1.4-.478-.478a.43.43,0,1,0-.608.608l.782.782a.43.43,0,0,0,.608,0l1.7-1.7A.43.43,0,0,0,54.413,348.826Z" transform="translate(-51.194 -348.7)" fill="#02c873"/>
    </g>
  </g>
</svg>
