<svg id="phone-call" xmlns="http://www.w3.org/2000/svg" width="22.971" height="23.004" viewBox="0 0 22.971 23.004">
  <g id="Group_42" data-name="Group 42" transform="translate(0 0)">
    <path id="Path_232" data-name="Path 232" d="M18.508,40.326a2.263,2.263,0,0,0-1.641-.753,2.34,2.34,0,0,0-1.66.748L13.673,41.85c-.126-.068-.252-.131-.374-.194-.175-.087-.34-.17-.481-.257a16.675,16.675,0,0,1-4-3.641,9.838,9.838,0,0,1-1.311-2.068c.4-.364.767-.743,1.126-1.107.136-.136.272-.277.408-.413a2.228,2.228,0,0,0,0-3.36L7.72,29.484c-.151-.151-.306-.306-.452-.461-.291-.3-.6-.612-.913-.9a2.3,2.3,0,0,0-1.627-.714,2.378,2.378,0,0,0-1.651.714l-.01.01L1.418,29.795A3.552,3.552,0,0,0,.364,32.052a8.511,8.511,0,0,0,.621,3.6A20.905,20.905,0,0,0,4.7,41.85a22.848,22.848,0,0,0,7.608,5.957,11.854,11.854,0,0,0,4.273,1.262c.1,0,.209.01.306.01a3.658,3.658,0,0,0,2.8-1.2c0-.01.015-.015.019-.024a11.037,11.037,0,0,1,.85-.879c.209-.2.422-.408.631-.626a2.422,2.422,0,0,0,.733-1.68A2.333,2.333,0,0,0,21.174,43Zm1.738,5.113s0,0,0,0c-.189.2-.384.388-.592.592a12.766,12.766,0,0,0-.937.971,2.341,2.341,0,0,1-1.826.772c-.073,0-.151,0-.223,0a10.53,10.53,0,0,1-3.787-1.136A21.567,21.567,0,0,1,5.715,41.02a19.711,19.711,0,0,1-3.5-5.821,6.932,6.932,0,0,1-.544-3.039,2.229,2.229,0,0,1,.67-1.442L4,29.062a1.1,1.1,0,0,1,.738-.345,1.039,1.039,0,0,1,.709.34l.015.015c.3.277.578.563.874.869.151.155.306.311.461.471l1.325,1.325a.927.927,0,0,1,0,1.505c-.141.141-.277.282-.418.418-.408.418-.8.806-1.219,1.185-.01.01-.019.015-.024.024a.99.99,0,0,0-.252,1.1l.015.044a10.641,10.641,0,0,0,1.568,2.559l0,0A17.82,17.82,0,0,0,12.109,42.5a6.627,6.627,0,0,0,.6.325c.175.087.34.17.481.257.019.01.039.024.058.034a1.052,1.052,0,0,0,.481.121,1.038,1.038,0,0,0,.738-.335l1.66-1.66a1.1,1.1,0,0,1,.733-.364.989.989,0,0,1,.7.354l.01.01,2.675,2.675A.96.96,0,0,1,20.247,45.438Z" transform="translate(-0.344 -26.075)" fill="#02c873"/>
    <path id="Path_233" data-name="Path 233" d="M245.483,87.226a6.249,6.249,0,0,1,5.088,5.088.651.651,0,0,0,.646.544.869.869,0,0,0,.112-.01.656.656,0,0,0,.539-.757,7.556,7.556,0,0,0-6.156-6.156.659.659,0,0,0-.757.534A.648.648,0,0,0,245.483,87.226Z" transform="translate(-233.068 -81.753)" fill="#02c873"/>
    <path id="Path_234" data-name="Path 234" d="M259.674,10.148A12.442,12.442,0,0,0,249.537.01a.655.655,0,1,0-.214,1.291,11.113,11.113,0,0,1,9.06,9.06.651.651,0,0,0,.646.544.868.868,0,0,0,.112-.01A.643.643,0,0,0,259.674,10.148Z" transform="translate(-236.713 0)" fill="#02c873"/>
  </g>
</svg>
