<svg xmlns="http://www.w3.org/2000/svg" width="147.277" height="147.277" viewBox="0 0 147.277 147.277">
  <g id="flasks" transform="translate(-0.5 0)">
    <path id="Path_443" data-name="Path 443" d="M196.217,12.613V64.764a15.1,15.1,0,1,0,30.2,0V12.569a6.454,6.454,0,0,0,4.315-6.1c0-.112,0-.21-.007-.306a6.349,6.349,0,0,0-2.085-4.418A6.648,6.648,0,0,0,224.141,0H198.253a6.472,6.472,0,0,0-4.577,11.049,6.433,6.433,0,0,0,2.541,1.564Zm2.036-8.3h25.891a2.363,2.363,0,0,1,1.584.616,2.062,2.062,0,0,1,.688,1.435l0,.015v.092a2.167,2.167,0,0,1-2.157,2.157h-8.4a2.157,2.157,0,0,0,0,4.315h6.24V34.728H207a2.157,2.157,0,1,0,0,4.315h15.1V64.764a10.787,10.787,0,1,1-21.574,0V12.944h6.7a2.157,2.157,0,0,0,.006-4.315.289.289,0,0,0-.07,0h-8.914a2.157,2.157,0,0,1,0-4.315Zm0,0" transform="translate(-136.259 0)" fill="#02c873"/>
    <path id="Path_444" data-name="Path 444" d="M330.589,247.107l-19.859-34.279c-.878-1.515-1.647-7.65-1.647-10.554V187.5a6.482,6.482,0,0,0,5.055-6.314c0-.1,0-.208-.008-.31A6.316,6.316,0,0,0,307.543,175H285.476A6.194,6.194,0,0,0,279,181.185a6.481,6.481,0,0,0,5.054,6.314v14.776c0,2.9-.77,9.04-1.646,10.553l-19.859,34.28a16.536,16.536,0,0,0,14.311,24.831h39.414a16.536,16.536,0,0,0,14.312-24.831Zm-14.312,20.516H276.863a12.223,12.223,0,0,1-10.578-18.353l19.859-34.28c1.694-2.925,2.228-10.76,2.228-12.716V187.657H294.1a2.157,2.157,0,1,0,0-4.315h-8.619a2.159,2.159,0,0,1-2.157-2.157,1.955,1.955,0,0,1,2.157-1.87h22.067a2.055,2.055,0,0,1,2.278,1.765c0,.035,0,.07,0,.1a2.159,2.159,0,0,1-2.157,2.157h-4.952a2.157,2.157,0,1,0,0,4.315h2.054v14.617c0,1.956.534,9.791,2.229,12.716l19.858,34.28a12.222,12.222,0,0,1-10.578,18.353Zm0,0" transform="translate(-185.067 -124.661)" fill="#515151"/>
    <path id="Path_445" data-name="Path 445" d="M335.057,377.785a2.157,2.157,0,1,0-3.733,2.164l9.751,16.817a3.883,3.883,0,0,1-3.36,5.832h-38.4a3.883,3.883,0,0,1-3.359-5.832l9.127-15.742H326a2.157,2.157,0,0,0,0-4.315H303.841a2.156,2.156,0,0,0-1.866,1.074L292.224,394.6a8.2,8.2,0,0,0,7.091,12.311h38.4a8.2,8.2,0,0,0,7.092-12.311Zm0,0" transform="translate(-207.013 -268.348)" fill="#02c873"/>
    <path id="Path_446" data-name="Path 446" d="M363.217,403.165a2.157,2.157,0,1,1-2.157-2.157A2.158,2.158,0,0,1,363.217,403.165Zm0,0" transform="translate(-255.308 -285.658)" fill="#02c873"/>
    <path id="Path_447" data-name="Path 447" d="M408.213,428.165a2.157,2.157,0,1,1-2.157-2.157A2.157,2.157,0,0,1,408.213,428.165Zm0,0" transform="translate(-287.361 -303.467)" fill="#02c873"/>
    <path id="Path_448" data-name="Path 448" d="M373.213,443.165a2.157,2.157,0,1,1-2.157-2.157A2.157,2.157,0,0,1,373.213,443.165Zm0,0" transform="translate(-262.429 -314.152)" fill="#02c873"/>
    <path id="Path_449" data-name="Path 449" d="M51.124,197.46V187.283a6.458,6.458,0,0,0,5.054-6.311,6.543,6.543,0,0,0-6.592-6.472H27.517a6.469,6.469,0,0,0-1.42,12.782l-.011,10.182a38.118,38.118,0,0,0,12.525,74.117h.125A38.118,38.118,0,0,0,51.124,197.46Zm-12.4,69.807A33.8,33.8,0,0,1,27.5,201.539a4.327,4.327,0,0,0,2.91-4.078V187.444h3.819a.207.207,0,0,0,.07,0,2.157,2.157,0,0,0-.006-4.315h-6.78a2.157,2.157,0,1,1,0-4.315h22.07a2.233,2.233,0,0,1,2.275,2.157,2.166,2.166,0,0,1-2.157,2.157H42.929a2.157,2.157,0,0,0,0,4.315h3.88V197.46a4.333,4.333,0,0,0,2.915,4.081,33.8,33.8,0,0,1-11,65.726Zm0,0" transform="translate(0 -124.305)" fill="#515151"/>
    <path id="Path_450" data-name="Path 450" d="M75.807,333c-4.809,0-8.48,2.754-11.436,5.448a2.157,2.157,0,0,0,2.906,3.189c3.37-3.07,5.842-4.323,8.531-4.323a9.349,9.349,0,0,1,0,18.7c-5.49,0-9.75-5.27-14.259-10.849C56.939,339.462,51.714,333,44.167,333a13.666,13.666,0,0,0-13.645,14.342A29.5,29.5,0,0,0,60,375.86h.088A29.545,29.545,0,0,0,89.47,346.547,13.684,13.684,0,0,0,75.807,333ZM60.068,371.545h-.08a25.082,25.082,0,0,1-25.163-25.117,9.4,9.4,0,0,1,9.341-9.114c5.487,0,9.828,5.369,14.026,10.561C63.14,354,68.256,360.327,75.807,360.327a13.586,13.586,0,0,0,5.97-1.374,25.2,25.2,0,0,1-21.709,12.593Zm0,0" transform="translate(-21.375 -237.213)" fill="#02c873"/>
    <path id="Path_451" data-name="Path 451" d="M69.811,379.157A2.157,2.157,0,1,1,67.653,377,2.157,2.157,0,0,1,69.811,379.157Zm0,0" transform="translate(-46.3 -268.556)" fill="#02c873"/>
    <path id="Path_452" data-name="Path 452" d="M114.811,404.157A2.157,2.157,0,1,1,112.653,402,2.158,2.158,0,0,1,114.811,404.157Zm0,0" transform="translate(-78.356 -286.365)" fill="#02c873"/>
    <path id="Path_453" data-name="Path 453" d="M79.811,419.157A2.157,2.157,0,1,1,77.653,417,2.157,2.157,0,0,1,79.811,419.157Zm0,0" transform="translate(-53.424 -297.05)" fill="#02c873"/>
  </g>
</svg>
