<svg xmlns="http://www.w3.org/2000/svg" width="135.356" height="135.338" viewBox="0 0 135.356 135.338">
  <g id="Outline" transform="translate(-2 -2)">
    <path id="Path_441" data-name="Path 441" d="M136.238,41.359l-.032-.054a10.686,10.686,0,0,0-13.781-3.656l-14.453,7.391a12.441,12.441,0,0,0-15.788-3.864L73.983,50.5a6.615,6.615,0,0,1-6.133-.038l-12.4-6.586A28.8,28.8,0,0,0,25.353,45.7l-1.4-6.681a2.255,2.255,0,0,0-2.682-1.741L3.78,41.054A2.255,2.255,0,0,0,2.048,43.72L12.231,92.241a2.255,2.255,0,0,0,2.206,1.8,2.394,2.394,0,0,0,.474-.05l17.5-3.767a2.255,2.255,0,0,0,1.732-2.668l-.9-4.342,5.979-1.288a15.468,15.468,0,0,1,5.3-.2l28.121,3.083a24.133,24.133,0,0,0,16.643-3.906l45.048-30.223a6.8,6.8,0,0,0,1.9-9.324ZM16.178,89.1,6.931,44.992l13.082-2.819L29.26,86.28ZM131.824,46.943,86.776,77.166a19.674,19.674,0,0,1-13.6,3.158L45.057,77.24a19.654,19.654,0,0,0-6.793.271L32.3,78.792,26.359,50.5l1.54-1.074a24.3,24.3,0,0,1,25.428-1.565l12.4,6.586a11.126,11.126,0,0,0,10.31.07l18.206-9.34a7.978,7.978,0,0,1,10.535,3.108,2.28,2.28,0,0,1-.8,3.1l-25.1,14.886a19.886,19.886,0,0,1-14.6,2.312L41.653,63.173l-1.047,4.389,22.656,5.413a24.375,24.375,0,0,0,17.924-2.822l25.1-14.886a6.766,6.766,0,0,0,3.282-5.984l14.9-7.626a6.169,6.169,0,0,1,7.937,2.1l.025.038a2.316,2.316,0,0,1-.609,3.151Z" transform="translate(0 43.292)" fill="#515151"/>
    <rect id="Rectangle_292" data-name="Rectangle 292" width="4.511" height="4.506" transform="matrix(0.979, -0.206, 0.206, 0.979, 12.186, 91.75)" fill="#515151"/>
    <path id="Path_442" data-name="Path 442" d="M55.821,87.274a2.255,2.255,0,0,0,2.657,0C81.109,70.766,95.041,55.026,100.1,40.343h11.593a6.766,6.766,0,1,0,0-4.511H101.356a36.621,36.621,0,0,0,.8-5.05,25.631,25.631,0,0,0-5.67-19.25A23.847,23.847,0,0,0,77.387,2,33.1,33.1,0,0,0,57.149,9.935,33.1,33.1,0,0,0,36.911,2a23.858,23.858,0,0,0-19.1,9.532,25.644,25.644,0,0,0-5.668,19.25C13.5,48.115,28.2,67.124,55.821,87.274Zm62.226-51.442a2.255,2.255,0,1,1-2.255,2.255A2.255,2.255,0,0,1,118.046,35.832ZM21.161,14.547a2.172,2.172,0,0,0,.282-.343A19.4,19.4,0,0,1,36.911,6.511c10.452,0,18.562,7.959,18.644,8.038a2.255,2.255,0,0,0,3.191,0c.081-.083,8.133-8.038,18.641-8.038A19.25,19.25,0,0,1,92.855,14.2a2.172,2.172,0,0,0,.282.343,20.976,20.976,0,0,1,4.524,15.872,31.487,31.487,0,0,1-.925,5.413H78.756l-8.372-14.66a2.255,2.255,0,0,0-4.06.282L55.171,49.364,48.026,26.147a2.255,2.255,0,0,0-4.089-.5l-6.11,10.183H23.317v4.511H39.106a2.255,2.255,0,0,0,1.933-1.094l4.157-6.94,7.535,24.485a2.255,2.255,0,0,0,2.064,1.579h.1a2.255,2.255,0,0,0,2.1-1.419l11.8-29.494L75.49,39.188a2.255,2.255,0,0,0,1.958,1.155H95.266C91.091,50.97,80.707,65.225,57.149,82.653,25.368,59.142,17.564,41.4,16.65,30.6a20.976,20.976,0,0,1,4.511-16.052Z" transform="translate(12.515 0)" fill="#02c873"/>
    <rect id="Rectangle_293" data-name="Rectangle 293" width="18" height="5" transform="translate(2.671 35.667)" fill="#02c873"/>
  </g>
</svg>
