<svg id="calendar" xmlns="http://www.w3.org/2000/svg" width="24" height="24" viewBox="0 0 24 24">
  <g id="Group_14" data-name="Group 14">
    <g id="Group_13" data-name="Group 13">
      <g id="Group_12" data-name="Group 12">
        <circle id="Ellipse_65" data-name="Ellipse 65" cx="1" cy="1" r="1" transform="translate(17 9)" fill="#02c873"/>
        <path id="Path_423" data-name="Path 423" d="M20.25,1.875H19.031V.938a.938.938,0,0,0-1.875,0v.938H12.891V.938a.938.938,0,0,0-1.875,0v.938H6.8V.938a.938.938,0,0,0-1.875,0v.938H3.75A3.754,3.754,0,0,0,0,5.625V20.25A3.754,3.754,0,0,0,3.75,24h7.172a.938.938,0,0,0,0-1.875H3.75A1.877,1.877,0,0,1,1.875,20.25V5.625A1.877,1.877,0,0,1,3.75,3.75H4.922v.938a.938.938,0,0,0,1.875,0V3.75h4.219v.938a.938.938,0,0,0,1.875,0V3.75h4.266v.938a.938.938,0,0,0,1.875,0V3.75H20.25a1.877,1.877,0,0,1,1.875,1.875v5.344a.938.938,0,0,0,1.875,0V5.625A3.754,3.754,0,0,0,20.25,1.875Z" fill="#02c873"/>
        <path id="Path_424" data-name="Path 424" d="M275.672,270a5.672,5.672,0,1,0,5.672,5.672A5.678,5.678,0,0,0,275.672,270Zm0,9.469a3.8,3.8,0,1,1,3.8-3.8A3.8,3.8,0,0,1,275.672,279.469Z" transform="translate(-257.344 -257.344)" fill="#02c873"/>
        <path id="Path_425" data-name="Path 425" d="M373.3,331.922h-.422v-.984a.938.938,0,0,0-1.875,0v1.922a.937.937,0,0,0,.938.938H373.3a.938.938,0,0,0,0-1.875Z" transform="translate(-353.609 -314.531)" fill="#02c873"/>
        <circle id="Ellipse_66" data-name="Ellipse 66" cx="1" cy="1" r="1" transform="translate(13 9)" fill="#02c873"/>
        <circle id="Ellipse_67" data-name="Ellipse 67" cx="1" cy="1" r="1" transform="translate(9 13)" fill="#02c873"/>
        <circle id="Ellipse_68" data-name="Ellipse 68" cx="1" cy="1" r="1" transform="translate(5 9)" fill="#02c873"/>
        <circle id="Ellipse_69" data-name="Ellipse 69" cx="1" cy="1" r="1" transform="translate(5 13)" fill="#02c873"/>
        <circle id="Ellipse_70" data-name="Ellipse 70" cx="1" cy="1" r="1" transform="translate(5 17)" fill="#02c873"/>
        <circle id="Ellipse_71" data-name="Ellipse 71" cx="1" cy="1" r="1" transform="translate(9 17)" fill="#02c873"/>
        <circle id="Ellipse_72" data-name="Ellipse 72" cx="1" cy="1" r="1" transform="translate(9 9)" fill="#02c873"/>
      </g>
    </g>
  </g>
</svg>
