<svg id="name" xmlns="http://www.w3.org/2000/svg" width="25.4" height="25.033" viewBox="0 0 25.4 25.033">
  <path id="Path_431" data-name="Path 431" d="M22.49,65.267H2.91A3.219,3.219,0,0,1,0,61.814V46.12a3.219,3.219,0,0,1,2.91-3.453H9.26a.955.955,0,0,1,0,1.883H2.91A1.464,1.464,0,0,0,1.587,46.12V61.814A1.464,1.464,0,0,0,2.91,63.384H22.49a1.464,1.464,0,0,0,1.323-1.569V46.12a1.464,1.464,0,0,0-1.323-1.569H16.14a.955.955,0,0,1,0-1.883h6.35A3.219,3.219,0,0,1,25.4,46.12V61.814A3.219,3.219,0,0,1,22.49,65.267Zm0,0" transform="translate(0 -40.234)" fill="#02c873"/>
  <path id="Path_432" data-name="Path 432" d="M177.283,6.692H172.52a2.007,2.007,0,0,1-1.852-2.129V2.129A2.007,2.007,0,0,1,172.52,0h4.763a2.007,2.007,0,0,1,1.852,2.129V4.562A2.007,2.007,0,0,1,177.283,6.692ZM172.52,1.825a.286.286,0,0,0-.265.3V4.563a.286.286,0,0,0,.265.3h4.763a.286.286,0,0,0,.265-.3V2.129a.287.287,0,0,0-.265-.3Zm0,0" transform="translate(-162.201)" fill="#02c873"/>
  <path id="Path_433" data-name="Path 433" d="M109.314,155.415a3.071,3.071,0,1,1,2.646-3.042A2.869,2.869,0,0,1,109.314,155.415Zm0-4.258a1.229,1.229,0,1,0,1.058,1.217A1.148,1.148,0,0,0,109.314,151.157Zm0,0" transform="translate(-101.376 -140.489)" fill="#02c873"/>
  <path id="Path_434" data-name="Path 434" d="M72.731,282.2a.86.86,0,0,1-.794-.913v-.608a1.434,1.434,0,0,0-1.323-1.521h-3.7a1.434,1.434,0,0,0-1.323,1.521v.608a.8.8,0,1,1-1.588,0v-.608a3.154,3.154,0,0,1,2.91-3.346h3.7a3.154,3.154,0,0,1,2.91,3.346v.608A.86.86,0,0,1,72.731,282.2Zm0,0" transform="translate(-60.825 -260.816)" fill="#02c873"/>
  <path id="Path_435" data-name="Path 435" d="M305.282,161.825h-5.821a.921.921,0,0,1,0-1.825h5.821a.921.921,0,0,1,0,1.825Zm0,0" transform="translate(-283.851 -150.592)" fill="#02c873"/>
  <path id="Path_436" data-name="Path 436" d="M305.282,247.157h-5.821a.921.921,0,0,1,0-1.825h5.821a.921.921,0,0,1,0,1.825Zm0,0" transform="translate(-283.851 -230.906)" fill="#02c873"/>
  <path id="Path_437" data-name="Path 437" d="M305.282,332.493h-5.821a.921.921,0,0,1,0-1.825h5.821a.921.921,0,0,1,0,1.825Zm0,0" transform="translate(-283.851 -311.11)" fill="#02c873"/>
</svg>
