<?xml version="1.0" standalone="no"?>
<!DOCTYPE svg PUBLIC "-//W3C//DTD SVG 20010904//EN"
 "http://www.w3.org/TR/2001/REC-SVG-20010904/DTD/svg10.dtd">
<svg version="1.0" xmlns="http://www.w3.org/2000/svg"
 width="177.000000pt" height="177.000000pt" viewBox="0 0 177.000000 177.000000"
 preserveAspectRatio="xMidYMid meet">
<metadata>
Created by potrace 1.14, written by Peter Selinger 2001-2017
</metadata>
<g transform="translate(0.000000,177.000000) scale(0.100000,-0.100000)"
fill="#000000" stroke="none">
<path d="M720 1755 c-342 -69 -612 -326 -696 -665 -26 -103 -26 -306 0 -410
19 -74 69 -201 91 -230 6 -8 21 -31 32 -51 66 -115 213 -242 366 -315 118 -55
214 -77 361 -79 109 -3 142 1 220 21 166 44 303 122 419 238 57 57 157 191
157 211 0 4 10 28 23 54 13 25 34 84 47 131 31 109 34 326 7 430 -85 322 -307
552 -624 646 -106 31 -296 40 -403 19z"/>
</g>
</svg>
